ply
format ascii 1.0
comment created by platoply
comment modified by divideply
comment modified by divideply
comment modified by divideply
element vertex 642
property float32 x
property float32 y
property float32 z
element face 1280
property list uint8 int32 vertex_indices
end_header
0 -0.525731 0.850651 
0.850651 0 0.525731 
0.850651 0 -0.525731 
-0.850651 0 -0.525731 
-0.850651 0 0.525731 
-0.525731 0.850651 0 
0.525731 0.850651 0 
0.525731 -0.850651 0 
-0.525731 -0.850651 0 
0 -0.525731 -0.850651 
0 0.525731 -0.850651 
0 0.525731 0.850651 
1 0 0 
-1 0 0 
0 1 0 
0 0 -1 
0 -1 0 
0 0 1 
0.5 0.309017 -0.809017 
0.809017 0.5 -0.309017 
0.309017 0.809017 -0.5 
0.309017 0.809017 0.5 
0.809017 0.5 0.309017 
0.5 0.309017 0.809017 
-0.309017 0.809017 -0.5 
-0.809017 0.5 -0.309017 
-0.5 0.309017 -0.809017 
-0.5 0.309017 0.809017 
-0.809017 0.5 0.309017 
-0.309017 0.809017 0.5 
0.309017 -0.809017 -0.5 
0.809017 -0.5 -0.309017 
0.5 -0.309017 -0.809017 
0.5 -0.309017 0.809017 
0.809017 -0.5 0.309017 
0.309017 -0.809017 0.5 
-0.309017 -0.809017 -0.5 
-0.5 -0.309017 -0.809017 
-0.809017 -0.5 -0.309017 
-0.309017 -0.809017 0.5 
-0.809017 -0.5 0.309017 
-0.5 -0.309017 0.809017 
-0.160622 -0.69378 0.702047 
-0.259892 -0.433888 0.862669 
0 -0.273266 0.961939 
0.259892 -0.433888 0.862669 
0.160622 -0.69378 0.702047 
0.961939 0 0.273266 
0.862669 -0.259892 0.433888 
0.702047 -0.160622 0.69378 
0.702047 0.160622 0.69378 
0.862669 0.259892 0.433888 
0.862669 0.259892 -0.433888 
0.702047 0.160622 -0.69378 
0.702047 -0.160622 -0.69378 
0.862669 -0.259892 -0.433888 
0.961939 0 -0.273266 
-0.961939 0 -0.273266 
-0.862669 -0.259892 -0.433888 
-0.702047 -0.160622 -0.69378 
-0.702047 0.160622 -0.69378 
-0.862669 0.259892 -0.433888 
-0.862669 0.259892 0.433888 
-0.702047 0.160622 0.69378 
-0.702047 -0.160622 0.69378 
-0.862669 -0.259892 0.433888 
-0.961939 0 0.273266 
-0.69378 0.702047 -0.160622 
-0.433888 0.862669 -0.259892 
-0.273266 0.961939 0 
-0.433888 0.862669 0.259892 
-0.69378 0.702047 0.160622 
0.69378 0.702047 0.160622 
0.433888 0.862669 0.259892 
0.273266 0.961939 0 
0.433888 0.862669 -0.259892 
0.69378 0.702047 -0.160622 
0.69378 -0.702047 -0.160622 
0.433888 -0.862669 -0.259892 
0.273266 -0.961939 0 
0.433888 -0.862669 0.259892 
0.69378 -0.702047 0.160622 
-0.69378 -0.702047 0.160622 
-0.433888 -0.862669 0.259892 
-0.273266 -0.961939 0 
-0.433888 -0.862669 -0.259892 
-0.69378 -0.702047 -0.160622 
0 -0.273266 -0.961939 
-0.259892 -0.433888 -0.862669 
-0.160622 -0.69378 -0.702047 
0.160622 -0.69378 -0.702047 
0.259892 -0.433888 -0.862669 
-0.160622 0.69378 -0.702047 
-0.259892 0.433888 -0.862669 
0 0.273266 -0.961939 
0.259892 0.433888 -0.862669 
0.160622 0.69378 -0.702047 
0.160622 0.69378 0.702047 
0.259892 0.433888 0.862669 
0 0.273266 0.961939 
-0.259892 0.433888 0.862669 
-0.160622 0.69378 0.702047 
0.951056 0.262866 -0.16246 
0.951056 0.262866 0.16246 
0.850651 0.525731 0 
0.850651 -0.525731 0 
0.951056 -0.262866 0.16246 
0.951056 -0.262866 -0.16246 
-0.951056 0.262866 0.16246 
-0.951056 0.262866 -0.16246 
-0.850651 0.525731 0 
-0.951056 -0.262866 -0.16246 
-0.951056 -0.262866 0.16246 
-0.850651 -0.525731 0 
-0.16246 0.951056 0.262866 
0.16246 0.951056 0.262866 
0 0.850651 0.525731 
0.16246 0.951056 -0.262866 
-0.16246 0.951056 -0.262866 
0 0.850651 -0.525731 
0.262866 0.16246 -0.951056 
0.262866 -0.16246 -0.951056 
0.525731 0 -0.850651 
-0.262866 -0.16246 -0.951056 
-0.262866 0.16246 -0.951056 
-0.525731 0 -0.850651 
-0.16246 -0.951056 -0.262866 
0.16246 -0.951056 -0.262866 
0 -0.850651 -0.525731 
0.16246 -0.951056 0.262866 
-0.16246 -0.951056 0.262866 
0 -0.850651 0.525731 
0.262866 -0.16246 0.951056 
0.262866 0.16246 0.951056 
0.525731 0 0.850651 
-0.262866 0.16246 0.951056 
-0.262866 -0.16246 0.951056 
-0.525731 0 0.850651 
0.688191 0.425325 -0.587785 
0.587785 0.688191 -0.425325 
0.425325 0.587785 -0.688191 
0.587785 0.688191 0.425325 
0.688191 0.425325 0.587785 
0.425325 0.587785 0.688191 
-0.587785 0.688191 -0.425325 
-0.688191 0.425325 -0.587785 
-0.425325 0.587785 -0.688191 
-0.688191 0.425325 0.587785 
-0.587785 0.688191 0.425325 
-0.425325 0.587785 0.688191 
0.587785 -0.688191 -0.425325 
0.688191 -0.425325 -0.587785 
0.425325 -0.587785 -0.688191 
0.688191 -0.425325 0.587785 
0.587785 -0.688191 0.425325 
0.425325 -0.587785 0.688191 
-0.425325 -0.587785 -0.688191 
-0.688191 -0.425325 -0.587785 
-0.587785 -0.688191 -0.425325 
-0.587785 -0.688191 0.425325 
-0.688191 -0.425325 0.587785 
-0.425325 -0.587785 0.688191 
-0.0810863 -0.615642 0.783843 
-0.1312 -0.484441 0.86493 
0 -0.403355 0.915043 
0.1312 -0.484441 0.86493 
0.0810863 -0.615642 0.783843 
0.915043 0 0.403355 
0.86493 -0.1312 0.484441 
0.783843 -0.0810863 0.615642 
0.783843 0.0810863 0.615642 
0.86493 0.1312 0.484441 
0.86493 0.1312 -0.484441 
0.783843 0.0810863 -0.615642 
0.783843 -0.0810863 -0.615642 
0.86493 -0.1312 -0.484441 
0.915043 0 -0.403355 
-0.915043 0 -0.403355 
-0.86493 -0.1312 -0.484441 
-0.783843 -0.0810863 -0.615642 
-0.783843 0.0810863 -0.615642 
-0.86493 0.1312 -0.484441 
-0.86493 0.1312 0.484441 
-0.783843 0.0810863 0.615642 
-0.783843 -0.0810863 0.615642 
-0.86493 -0.1312 0.484441 
-0.915043 0 0.403355 
-0.615642 0.783843 -0.0810863 
-0.484441 0.86493 -0.1312 
-0.403355 0.915043 0 
-0.484441 0.86493 0.1312 
-0.615642 0.783843 0.0810863 
0.615642 0.783843 0.0810863 
0.484441 0.86493 0.1312 
0.403355 0.915043 0 
0.484441 0.86493 -0.1312 
0.615642 0.783843 -0.0810863 
0.615642 -0.783843 -0.0810863 
0.484441 -0.86493 -0.1312 
0.403355 -0.915043 0 
0.484441 -0.86493 0.1312 
0.615642 -0.783843 0.0810863 
-0.615642 -0.783843 0.0810863 
-0.484441 -0.86493 0.1312 
-0.403355 -0.915043 0 
-0.484441 -0.86493 -0.1312 
-0.615642 -0.783843 -0.0810863 
0 -0.403355 -0.915043 
-0.1312 -0.484441 -0.86493 
-0.0810863 -0.615642 -0.783843 
0.0810863 -0.615642 -0.783843 
0.1312 -0.484441 -0.86493 
-0.0810863 0.615642 -0.783843 
-0.1312 0.484441 -0.86493 
0 0.403355 -0.915043 
0.1312 0.484441 -0.86493 
0.0810863 0.615642 -0.783843 
0.0810863 0.615642 0.783843 
0.1312 0.484441 0.86493 
0 0.403355 0.915043 
-0.1312 0.484441 0.86493 
-0.0810863 0.615642 0.783843 
0.987688 0.133071 0.0822425 
0.987688 0.133071 -0.0822425 
0.990439 0 -0.137952 
0.987688 -0.133071 -0.0822425 
0.987688 -0.133071 0.0822425 
0.990439 0 0.137952 
-0.987688 0.133071 -0.0822425 
-0.987688 0.133071 0.0822425 
-0.990439 0 0.137952 
-0.987688 -0.133071 0.0822425 
-0.987688 -0.133071 -0.0822425 
-0.990439 0 -0.137952 
-0.0822425 0.987688 -0.133071 
0.0822425 0.987688 -0.133071 
0.137952 0.990439 0 
0.0822425 0.987688 0.133071 
-0.0822425 0.987688 0.133071 
-0.137952 0.990439 0 
0.133071 -0.0822425 -0.987688 
0.133071 0.0822425 -0.987688 
0 0.137952 -0.990439 
-0.133071 0.0822425 -0.987688 
-0.133071 -0.0822425 -0.987688 
0 -0.137952 -0.990439 
0.0822425 -0.987688 -0.133071 
-0.0822425 -0.987688 -0.133071 
-0.137952 -0.990439 0 
-0.0822425 -0.987688 0.133071 
0.0822425 -0.987688 0.133071 
0.137952 -0.990439 0 
-0.133071 -0.0822425 0.987688 
-0.133071 0.0822425 0.987688 
0 0.137952 0.990439 
0.133071 0.0822425 0.987688 
0.133071 -0.0822425 0.987688 
0 -0.137952 0.990439 
0.601501 0.371748 -0.707107 
0.46843 0.45399 -0.757936 
0.383614 0.375038 -0.843912 
0.386187 0.238677 -0.891006 
0.519258 0.156434 -0.840178 
0.606825 0.237086 -0.758652 
0.891006 0.386187 -0.238677 
0.840178 0.519258 -0.156434 
0.758652 0.606825 -0.237086 
0.707107 0.601501 -0.371748 
0.757936 0.46843 -0.45399 
0.843912 0.383614 -0.375038 
0.238677 0.891006 -0.386187 
0.156434 0.840178 -0.519258 
0.237086 0.758652 -0.606825 
0.371748 0.707107 -0.601501 
0.45399 0.757936 -0.46843 
0.375038 0.843912 -0.383614 
0.45399 0.757936 0.46843 
0.371748 0.707107 0.601501 
0.237086 0.758652 0.606825 
0.156434 0.840178 0.519258 
0.238677 0.891006 0.386187 
0.375038 0.843912 0.383614 
0.843912 0.383614 0.375038 
0.757936 0.46843 0.45399 
0.707107 0.601501 0.371748 
0.758652 0.606825 0.237086 
0.840178 0.519258 0.156434 
0.891006 0.386187 0.238677 
0.519258 0.156434 0.840178 
0.386187 0.238677 0.891006 
0.383614 0.375038 0.843912 
0.46843 0.45399 0.757936 
0.601501 0.371748 0.707107 
0.606825 0.237086 0.758652 
-0.45399 0.757936 -0.46843 
-0.371748 0.707107 -0.601501 
-0.237086 0.758652 -0.606825 
-0.156434 0.840178 -0.519258 
-0.238677 0.891006 -0.386187 
-0.375038 0.843912 -0.383614 
-0.843912 0.383614 -0.375038 
-0.757936 0.46843 -0.45399 
-0.707107 0.601501 -0.371748 
-0.758652 0.606825 -0.237086 
-0.840178 0.519258 -0.156434 
-0.891006 0.386187 -0.238677 
-0.519258 0.156434 -0.840178 
-0.386187 0.238677 -0.891006 
-0.383614 0.375038 -0.843912 
-0.46843 0.45399 -0.757936 
-0.601501 0.371748 -0.707107 
-0.606825 0.237086 -0.758652 
-0.601501 0.371748 0.707107 
-0.46843 0.45399 0.757936 
-0.383614 0.375038 0.843912 
-0.386187 0.238677 0.891006 
-0.519258 0.156434 0.840178 
-0.606825 0.237086 0.758652 
-0.891006 0.386187 0.238677 
-0.840178 0.519258 0.156434 
-0.758652 0.606825 0.237086 
-0.707107 0.601501 0.371748 
-0.757936 0.46843 0.45399 
-0.843912 0.383614 0.375038 
-0.238677 0.891006 0.386187 
-0.156434 0.840178 0.519258 
-0.237086 0.758652 0.606825 
-0.371748 0.707107 0.601501 
-0.45399 0.757936 0.46843 
-0.375038 0.843912 0.383614 
0.45399 -0.757936 -0.46843 
0.371748 -0.707107 -0.601501 
0.237086 -0.758652 -0.606825 
0.156434 -0.840178 -0.519258 
0.238677 -0.891006 -0.386187 
0.375038 -0.843912 -0.383614 
0.757936 -0.46843 -0.45399 
0.707107 -0.601501 -0.371748 
0.758652 -0.606825 -0.237086 
0.840178 -0.519258 -0.156434 
0.891006 -0.386187 -0.238677 
0.843912 -0.383614 -0.375038 
0.519258 -0.156434 -0.840178 
0.386187 -0.238677 -0.891006 
0.383614 -0.375038 -0.843912 
0.46843 -0.45399 -0.757936 
0.601501 -0.371748 -0.707107 
0.606825 -0.237086 -0.758652 
0.386187 -0.238677 0.891006 
0.519258 -0.156434 0.840178 
0.606825 -0.237086 0.758652 
0.601501 -0.371748 0.707107 
0.46843 -0.45399 0.757936 
0.383614 -0.375038 0.843912 
0.891006 -0.386187 0.238677 
0.840178 -0.519258 0.156434 
0.758652 -0.606825 0.237086 
0.707107 -0.601501 0.371748 
0.757936 -0.46843 0.45399 
0.843912 -0.383614 0.375038 
0.237086 -0.758652 0.606825 
0.371748 -0.707107 0.601501 
0.45399 -0.757936 0.46843 
0.375038 -0.843912 0.383614 
0.238677 -0.891006 0.386187 
0.156434 -0.840178 0.519258 
-0.238677 -0.891006 -0.386187 
-0.156434 -0.840178 -0.519258 
-0.237086 -0.758652 -0.606825 
-0.371748 -0.707107 -0.601501 
-0.45399 -0.757936 -0.46843 
-0.375038 -0.843912 -0.383614 
-0.601501 -0.371748 -0.707107 
-0.46843 -0.45399 -0.757936 
-0.383614 -0.375038 -0.843912 
-0.386187 -0.238677 -0.891006 
-0.519258 -0.156434 -0.840178 
-0.606825 -0.237086 -0.758652 
-0.891006 -0.386187 -0.238677 
-0.840178 -0.519258 -0.156434 
-0.758652 -0.606825 -0.237086 
-0.707107 -0.601501 -0.371748 
-0.757936 -0.46843 -0.45399 
-0.843912 -0.383614 -0.375038 
-0.156434 -0.840178 0.519258 
-0.238677 -0.891006 0.386187 
-0.375038 -0.843912 0.383614 
-0.45399 -0.757936 0.46843 
-0.371748 -0.707107 0.601501 
-0.237086 -0.758652 0.606825 
-0.757936 -0.46843 0.45399 
-0.707107 -0.601501 0.371748 
-0.758652 -0.606825 0.237086 
-0.840178 -0.519258 0.156434 
-0.891006 -0.386187 0.238677 
-0.843912 -0.383614 0.375038 
-0.46843 -0.45399 0.757936 
-0.601501 -0.371748 0.707107 
-0.606825 -0.237086 0.758652 
-0.519258 -0.156434 0.840178 
-0.386187 -0.238677 0.891006 
-0.383614 -0.375038 0.843912 
0.0811418 -0.780204 0.62024 
-0.0811418 -0.780204 0.62024 
0 -0.702906 0.711282 
-0.296004 -0.647412 0.70231 
-0.346153 -0.516121 0.783452 
-0.213023 -0.571251 0.79265 
-0.264083 -0.301259 0.916244 
-0.132793 -0.220117 0.966393 
-0.131655 -0.358228 0.924305 
0.132793 -0.220117 0.966393 
0.264083 -0.301259 0.916244 
0.131655 -0.358228 0.924305 
0.346153 -0.516121 0.783452 
0.296004 -0.647412 0.70231 
0.213023 -0.571251 0.79265 
0.916244 0.264083 0.301259 
0.966393 0.132793 0.220117 
0.924305 0.131655 0.358228 
0.966393 -0.132793 0.220117 
0.916244 -0.264083 0.301259 
0.924305 -0.131655 0.358228 
0.783452 -0.346153 0.516121 
0.70231 -0.296004 0.647412 
0.79265 -0.213023 0.571251 
0.62024 -0.0811418 0.780204 
0.62024 0.0811418 0.780204 
0.711282 0 0.702906 
0.70231 0.296004 0.647412 
0.783452 0.346153 0.516121 
0.79265 0.213023 0.571251 
0.966393 0.132793 -0.220117 
0.916244 0.264083 -0.301259 
0.924305 0.131655 -0.358228 
0.783452 0.346153 -0.516121 
0.70231 0.296004 -0.647412 
0.79265 0.213023 -0.571251 
0.62024 0.0811418 -0.780204 
0.62024 -0.0811418 -0.780204 
0.711282 0 -0.702906 
0.70231 -0.296004 -0.647412 
0.783452 -0.346153 -0.516121 
0.79265 -0.213023 -0.571251 
0.916244 -0.264083 -0.301259 
0.966393 -0.132793 -0.220117 
0.924305 -0.131655 -0.358228 
-0.916244 0.264083 -0.301259 
-0.966393 0.132793 -0.220117 
-0.924305 0.131655 -0.358228 
-0.966393 -0.132793 -0.220117 
-0.916244 -0.264083 -0.301259 
-0.924305 -0.131655 -0.358228 
-0.783452 -0.346153 -0.516121 
-0.70231 -0.296004 -0.647412 
-0.79265 -0.213023 -0.571251 
-0.62024 -0.0811418 -0.780204 
-0.62024 0.0811418 -0.780204 
-0.711282 0 -0.702906 
-0.70231 0.296004 -0.647412 
-0.783452 0.346153 -0.516121 
-0.79265 0.213023 -0.571251 
-0.966393 0.132793 0.220117 
-0.916244 0.264083 0.301259 
-0.924305 0.131655 0.358228 
-0.783452 0.346153 0.516121 
-0.70231 0.296004 0.647412 
-0.79265 0.213023 0.571251 
-0.62024 0.0811418 0.780204 
-0.62024 -0.0811418 0.780204 
-0.711282 0 0.702906 
-0.70231 -0.296004 0.647412 
-0.783452 -0.346153 0.516121 
-0.79265 -0.213023 0.571251 
-0.916244 -0.264083 0.301259 
-0.966393 -0.132793 0.220117 
-0.924305 -0.131655 0.358228 
-0.780204 0.62024 0.0811418 
-0.780204 0.62024 -0.0811418 
-0.702906 0.711282 0 
-0.647412 0.70231 -0.296004 
-0.516121 0.783452 -0.346153 
-0.571251 0.79265 -0.213023 
-0.301259 0.916244 -0.264083 
-0.220117 0.966393 -0.132793 
-0.358228 0.924305 -0.131655 
-0.220117 0.966393 0.132793 
-0.301259 0.916244 0.264083 
-0.358228 0.924305 0.131655 
-0.516121 0.783452 0.346153 
-0.647412 0.70231 0.296004 
-0.571251 0.79265 0.213023 
0.780204 0.62024 -0.0811418 
0.780204 0.62024 0.0811418 
0.702906 0.711282 0 
0.647412 0.70231 0.296004 
0.516121 0.783452 0.346153 
0.571251 0.79265 0.213023 
0.301259 0.916244 0.264083 
0.220117 0.966393 0.132793 
0.358228 0.924305 0.131655 
0.220117 0.966393 -0.132793 
0.301259 0.916244 -0.264083 
0.358228 0.924305 -0.131655 
0.516121 0.783452 -0.346153 
0.647412 0.70231 -0.296004 
0.571251 0.79265 -0.213023 
0.780204 -0.62024 0.0811418 
0.780204 -0.62024 -0.0811418 
0.702906 -0.711282 0 
0.647412 -0.70231 -0.296004 
0.516121 -0.783452 -0.346153 
0.571251 -0.79265 -0.213023 
0.301259 -0.916244 -0.264083 
0.220117 -0.966393 -0.132793 
0.358228 -0.924305 -0.131655 
0.220117 -0.966393 0.132793 
0.301259 -0.916244 0.264083 
0.358228 -0.924305 0.131655 
0.516121 -0.783452 0.346153 
0.647412 -0.70231 0.296004 
0.571251 -0.79265 0.213023 
-0.780204 -0.62024 -0.0811418 
-0.780204 -0.62024 0.0811418 
-0.702906 -0.711282 0 
-0.647412 -0.70231 0.296004 
-0.516121 -0.783452 0.346153 
-0.571251 -0.79265 0.213023 
-0.301259 -0.916244 0.264083 
-0.220117 -0.966393 0.132793 
-0.358228 -0.924305 0.131655 
-0.220117 -0.966393 -0.132793 
-0.301259 -0.916244 -0.264083 
-0.358228 -0.924305 -0.131655 
-0.516121 -0.783452 -0.346153 
-0.647412 -0.70231 -0.296004 
-0.571251 -0.79265 -0.213023 
0.264083 -0.301259 -0.916244 
0.132793 -0.220117 -0.966393 
0.131655 -0.358228 -0.924305 
-0.132793 -0.220117 -0.966393 
-0.264083 -0.301259 -0.916244 
-0.131655 -0.358228 -0.924305 
-0.346153 -0.516121 -0.783452 
-0.296004 -0.647412 -0.70231 
-0.213023 -0.571251 -0.79265 
-0.0811418 -0.780204 -0.62024 
0.0811418 -0.780204 -0.62024 
0 -0.702906 -0.711282 
0.296004 -0.647412 -0.70231 
0.346153 -0.516121 -0.783452 
0.213023 -0.571251 -0.79265 
0.0811418 0.780204 -0.62024 
-0.0811418 0.780204 -0.62024 
0 0.702906 -0.711282 
-0.296004 0.647412 -0.70231 
-0.346153 0.516121 -0.783452 
-0.213023 0.571251 -0.79265 
-0.264083 0.301259 -0.916244 
-0.132793 0.220117 -0.966393 
-0.131655 0.358228 -0.924305 
0.132793 0.220117 -0.966393 
0.264083 0.301259 -0.916244 
0.131655 0.358228 -0.924305 
0.346153 0.516121 -0.783452 
0.296004 0.647412 -0.70231 
0.213023 0.571251 -0.79265 
-0.0811418 0.780204 0.62024 
0.0811418 0.780204 0.62024 
0 0.702906 0.711282 
0.296004 0.647412 0.70231 
0.346153 0.516121 0.783452 
0.213023 0.571251 0.79265 
0.264083 0.301259 0.916244 
0.132793 0.220117 0.966393 
0.131655 0.358228 0.924305 
-0.132793 0.220117 0.966393 
-0.264083 0.301259 0.916244 
-0.131655 0.358228 0.924305 
-0.346153 0.516121 0.783452 
-0.296004 0.647412 0.70231 
-0.213023 0.571251 0.79265 
0.963861 0.266405 0 
0.912983 0.399607 0.0823236 
0.912983 0.399607 -0.0823236 
0.912983 -0.399607 0.0823236 
0.963861 -0.266405 0 
0.912983 -0.399607 -0.0823236 
-0.963861 0.266405 0 
-0.912983 0.399607 -0.0823236 
-0.912983 0.399607 0.0823236 
-0.963861 -0.266405 0 
-0.912983 -0.399607 0.0823236 
-0.912983 -0.399607 -0.0823236 
0 0.963861 0.266405 
0.0823236 0.912983 0.399607 
-0.0823236 0.912983 0.399607 
0 0.963861 -0.266405 
-0.0823236 0.912983 -0.399607 
0.0823236 0.912983 -0.399607 
0.266405 0 -0.963861 
0.399607 -0.0823236 -0.912983 
0.399607 0.0823236 -0.912983 
-0.266405 0 -0.963861 
-0.399607 0.0823236 -0.912983 
-0.399607 -0.0823236 -0.912983 
0 -0.963861 -0.266405 
0.0823236 -0.912983 -0.399607 
-0.0823236 -0.912983 -0.399607 
0 -0.963861 0.266405 
-0.0823236 -0.912983 0.399607 
0.0823236 -0.912983 0.399607 
0.266405 0 0.963861 
0.399607 0.0823236 0.912983 
0.399607 -0.0823236 0.912983 
-0.266405 0 0.963861 
-0.399607 -0.0823236 0.912983 
-0.399607 0.0823236 0.912983 
0.646578 0.564254 -0.513375 
0.513375 0.646578 -0.564254 
0.564254 0.513375 -0.646578 
0.646578 0.564254 0.513375 
0.564254 0.513375 0.646578 
0.513375 0.646578 0.564254 
-0.646578 0.564254 -0.513375 
-0.564254 0.513375 -0.646578 
-0.513375 0.646578 -0.564254 
-0.646578 0.564254 0.513375 
-0.513375 0.646578 0.564254 
-0.564254 0.513375 0.646578 
0.646578 -0.564254 -0.513375 
0.564254 -0.513375 -0.646578 
0.513375 -0.646578 -0.564254 
0.646578 -0.564254 0.513375 
0.513375 -0.646578 0.564254 
0.564254 -0.513375 0.646578 
-0.564254 -0.513375 -0.646578 
-0.646578 -0.564254 -0.513375 
-0.513375 -0.646578 -0.564254 
-0.646578 -0.564254 0.513375 
-0.564254 -0.513375 0.646578 
-0.513375 -0.646578 0.564254 
3 0 166 162 
3 0 162 163 
3 0 163 164 
3 0 164 165 
3 0 165 166 
3 1 171 167 
3 1 167 168 
3 1 168 169 
3 1 169 170 
3 1 170 171 
3 2 176 172 
3 2 172 173 
3 2 173 174 
3 2 174 175 
3 2 175 176 
3 3 181 177 
3 3 177 178 
3 3 178 179 
3 3 179 180 
3 3 180 181 
3 4 186 182 
3 4 182 183 
3 4 183 184 
3 4 184 185 
3 4 185 186 
3 5 191 187 
3 5 187 188 
3 5 188 189 
3 5 189 190 
3 5 190 191 
3 6 196 192 
3 6 192 193 
3 6 193 194 
3 6 194 195 
3 6 195 196 
3 7 201 197 
3 7 197 198 
3 7 198 199 
3 7 199 200 
3 7 200 201 
3 8 206 202 
3 8 202 203 
3 8 203 204 
3 8 204 205 
3 8 205 206 
3 9 211 207 
3 9 207 208 
3 9 208 209 
3 9 209 210 
3 9 210 211 
3 10 216 212 
3 10 212 213 
3 10 213 214 
3 10 214 215 
3 10 215 216 
3 11 221 217 
3 11 217 218 
3 11 218 219 
3 11 219 220 
3 11 220 221 
3 12 227 222 
3 12 222 223 
3 12 223 224 
3 12 224 225 
3 12 225 226 
3 12 226 227 
3 13 233 228 
3 13 228 229 
3 13 229 230 
3 13 230 231 
3 13 231 232 
3 13 232 233 
3 14 239 234 
3 14 234 235 
3 14 235 236 
3 14 236 237 
3 14 237 238 
3 14 238 239 
3 15 245 240 
3 15 240 241 
3 15 241 242 
3 15 242 243 
3 15 243 244 
3 15 244 245 
3 16 251 246 
3 16 246 247 
3 16 247 248 
3 16 248 249 
3 16 249 250 
3 16 250 251 
3 17 257 252 
3 17 252 253 
3 17 253 254 
3 17 254 255 
3 17 255 256 
3 17 256 257 
3 18 263 258 
3 18 258 259 
3 18 259 260 
3 18 260 261 
3 18 261 262 
3 18 262 263 
3 19 269 264 
3 19 264 265 
3 19 265 266 
3 19 266 267 
3 19 267 268 
3 19 268 269 
3 20 275 270 
3 20 270 271 
3 20 271 272 
3 20 272 273 
3 20 273 274 
3 20 274 275 
3 21 281 276 
3 21 276 277 
3 21 277 278 
3 21 278 279 
3 21 279 280 
3 21 280 281 
3 22 287 282 
3 22 282 283 
3 22 283 284 
3 22 284 285 
3 22 285 286 
3 22 286 287 
3 23 293 288 
3 23 288 289 
3 23 289 290 
3 23 290 291 
3 23 291 292 
3 23 292 293 
3 24 299 294 
3 24 294 295 
3 24 295 296 
3 24 296 297 
3 24 297 298 
3 24 298 299 
3 25 305 300 
3 25 300 301 
3 25 301 302 
3 25 302 303 
3 25 303 304 
3 25 304 305 
3 26 311 306 
3 26 306 307 
3 26 307 308 
3 26 308 309 
3 26 309 310 
3 26 310 311 
3 27 317 312 
3 27 312 313 
3 27 313 314 
3 27 314 315 
3 27 315 316 
3 27 316 317 
3 28 323 318 
3 28 318 319 
3 28 319 320 
3 28 320 321 
3 28 321 322 
3 28 322 323 
3 29 329 324 
3 29 324 325 
3 29 325 326 
3 29 326 327 
3 29 327 328 
3 29 328 329 
3 30 335 330 
3 30 330 331 
3 30 331 332 
3 30 332 333 
3 30 333 334 
3 30 334 335 
3 31 341 336 
3 31 336 337 
3 31 337 338 
3 31 338 339 
3 31 339 340 
3 31 340 341 
3 32 347 342 
3 32 342 343 
3 32 343 344 
3 32 344 345 
3 32 345 346 
3 32 346 347 
3 33 353 348 
3 33 348 349 
3 33 349 350 
3 33 350 351 
3 33 351 352 
3 33 352 353 
3 34 359 354 
3 34 354 355 
3 34 355 356 
3 34 356 357 
3 34 357 358 
3 34 358 359 
3 35 365 360 
3 35 360 361 
3 35 361 362 
3 35 362 363 
3 35 363 364 
3 35 364 365 
3 36 371 366 
3 36 366 367 
3 36 367 368 
3 36 368 369 
3 36 369 370 
3 36 370 371 
3 37 377 372 
3 37 372 373 
3 37 373 374 
3 37 374 375 
3 37 375 376 
3 37 376 377 
3 38 383 378 
3 38 378 379 
3 38 379 380 
3 38 380 381 
3 38 381 382 
3 38 382 383 
3 39 389 384 
3 39 384 385 
3 39 385 386 
3 39 386 387 
3 39 387 388 
3 39 388 389 
3 40 395 390 
3 40 390 391 
3 40 391 392 
3 40 392 393 
3 40 393 394 
3 40 394 395 
3 41 401 396 
3 41 396 397 
3 41 397 398 
3 41 398 399 
3 41 399 400 
3 41 400 401 
3 42 162 404 
3 42 404 403 
3 42 403 389 
3 42 389 405 
3 42 405 407 
3 42 407 162 
3 43 163 407 
3 43 407 406 
3 43 406 401 
3 43 401 408 
3 43 408 410 
3 43 410 163 
3 44 164 410 
3 44 410 409 
3 44 409 257 
3 44 257 411 
3 44 411 413 
3 44 413 164 
3 45 165 413 
3 45 413 412 
3 45 412 353 
3 45 353 414 
3 45 414 416 
3 45 416 165 
3 46 404 166 
3 46 166 416 
3 46 416 415 
3 46 415 360 
3 46 360 402 
3 46 402 404 
3 47 167 419 
3 47 419 418 
3 47 418 227 
3 47 227 420 
3 47 420 422 
3 47 422 167 
3 48 168 422 
3 48 422 421 
3 48 421 359 
3 48 359 423 
3 48 423 425 
3 48 425 168 
3 49 169 425 
3 49 425 424 
3 49 424 350 
3 49 350 426 
3 49 426 428 
3 49 428 169 
3 50 170 428 
3 50 428 427 
3 50 427 293 
3 50 293 429 
3 50 429 431 
3 50 431 170 
3 51 419 171 
3 51 171 431 
3 51 431 430 
3 51 430 282 
3 51 282 417 
3 51 417 419 
3 52 172 434 
3 52 434 433 
3 52 433 269 
3 52 269 435 
3 52 435 437 
3 52 437 172 
3 53 173 437 
3 53 437 436 
3 53 436 263 
3 53 263 438 
3 53 438 440 
3 53 440 173 
3 54 174 440 
3 54 440 439 
3 54 439 347 
3 54 347 441 
3 54 441 443 
3 54 443 174 
3 55 175 443 
3 55 443 442 
3 55 442 341 
3 55 341 444 
3 55 444 446 
3 55 446 175 
3 56 434 176 
3 56 176 446 
3 56 446 445 
3 56 445 224 
3 56 224 432 
3 56 432 434 
3 57 177 449 
3 57 449 448 
3 57 448 233 
3 57 233 450 
3 57 450 452 
3 57 452 177 
3 58 178 452 
3 58 452 451 
3 58 451 383 
3 58 383 453 
3 58 453 455 
3 58 455 178 
3 59 179 455 
3 59 455 454 
3 59 454 377 
3 59 377 456 
3 59 456 458 
3 59 458 179 
3 60 180 458 
3 60 458 457 
3 60 457 311 
3 60 311 459 
3 60 459 461 
3 60 461 180 
3 61 449 181 
3 61 181 461 
3 61 461 460 
3 61 460 300 
3 61 300 447 
3 61 447 449 
3 62 182 464 
3 62 464 463 
3 62 463 323 
3 62 323 465 
3 62 465 467 
3 62 467 182 
3 63 183 467 
3 63 467 466 
3 63 466 317 
3 63 317 468 
3 63 468 470 
3 63 470 183 
3 64 184 470 
3 64 470 469 
3 64 469 398 
3 64 398 471 
3 64 471 473 
3 64 473 184 
3 65 185 473 
3 65 473 472 
3 65 472 395 
3 65 395 474 
3 65 474 476 
3 65 476 185 
3 66 464 186 
3 66 186 476 
3 66 476 475 
3 66 475 230 
3 66 230 462 
3 66 462 464 
3 67 187 479 
3 67 479 478 
3 67 478 303 
3 67 303 480 
3 67 480 482 
3 67 482 187 
3 68 188 482 
3 68 482 481 
3 68 481 299 
3 68 299 483 
3 68 483 485 
3 68 485 188 
3 69 189 485 
3 69 485 484 
3 69 484 239 
3 69 239 486 
3 69 486 488 
3 69 488 189 
3 70 190 488 
3 70 488 487 
3 70 487 329 
3 70 329 489 
3 70 489 491 
3 70 491 190 
3 71 479 191 
3 71 191 491 
3 71 491 490 
3 71 490 320 
3 71 320 477 
3 71 477 479 
3 72 192 494 
3 72 494 493 
3 72 493 285 
3 72 285 495 
3 72 495 497 
3 72 497 192 
3 73 193 497 
3 73 497 496 
3 73 496 281 
3 73 281 498 
3 73 498 500 
3 73 500 193 
3 74 194 500 
3 74 500 499 
3 74 499 236 
3 74 236 501 
3 74 501 503 
3 74 503 194 
3 75 195 503 
3 75 503 502 
3 75 502 275 
3 75 275 504 
3 75 504 506 
3 75 506 195 
3 76 494 196 
3 76 196 506 
3 76 506 505 
3 76 505 266 
3 76 266 492 
3 76 492 494 
3 77 197 509 
3 77 509 508 
3 77 508 338 
3 77 338 510 
3 77 510 512 
3 77 512 197 
3 78 198 512 
3 78 512 511 
3 78 511 335 
3 78 335 513 
3 78 513 515 
3 78 515 198 
3 79 199 515 
3 79 515 514 
3 79 514 251 
3 79 251 516 
3 79 516 518 
3 79 518 199 
3 80 200 518 
3 80 518 517 
3 80 517 363 
3 80 363 519 
3 80 519 521 
3 80 521 200 
3 81 509 201 
3 81 201 521 
3 81 521 520 
3 81 520 356 
3 81 356 507 
3 81 507 509 
3 82 202 524 
3 82 524 523 
3 82 523 392 
3 82 392 525 
3 82 525 527 
3 82 527 202 
3 83 203 527 
3 83 527 526 
3 83 526 386 
3 83 386 528 
3 83 528 530 
3 83 530 203 
3 84 204 530 
3 84 530 529 
3 84 529 248 
3 84 248 531 
3 84 531 533 
3 84 533 204 
3 85 205 533 
3 85 533 532 
3 85 532 371 
3 85 371 534 
3 85 534 536 
3 85 536 205 
3 86 524 206 
3 86 206 536 
3 86 536 535 
3 86 535 380 
3 86 380 522 
3 86 522 524 
3 87 207 539 
3 87 539 538 
3 87 538 245 
3 87 245 540 
3 87 540 542 
3 87 542 207 
3 88 208 542 
3 88 542 541 
3 88 541 374 
3 88 374 543 
3 88 543 545 
3 88 545 208 
3 89 209 545 
3 89 545 544 
3 89 544 368 
3 89 368 546 
3 89 546 548 
3 89 548 209 
3 90 210 548 
3 90 548 547 
3 90 547 332 
3 90 332 549 
3 90 549 551 
3 90 551 210 
3 91 539 211 
3 91 211 551 
3 91 551 550 
3 91 550 344 
3 91 344 537 
3 91 537 539 
3 92 212 554 
3 92 554 553 
3 92 553 296 
3 92 296 555 
3 92 555 557 
3 92 557 212 
3 93 213 557 
3 93 557 556 
3 93 556 308 
3 93 308 558 
3 93 558 560 
3 93 560 213 
3 94 214 560 
3 94 560 559 
3 94 559 242 
3 94 242 561 
3 94 561 563 
3 94 563 214 
3 95 215 563 
3 95 563 562 
3 95 562 260 
3 95 260 564 
3 95 564 566 
3 95 566 215 
3 96 554 216 
3 96 216 566 
3 96 566 565 
3 96 565 272 
3 96 272 552 
3 96 552 554 
3 97 217 569 
3 97 569 568 
3 97 568 278 
3 97 278 570 
3 97 570 572 
3 97 572 217 
3 98 218 572 
3 98 572 571 
3 98 571 290 
3 98 290 573 
3 98 573 575 
3 98 575 218 
3 99 219 575 
3 99 575 574 
3 99 574 254 
3 99 254 576 
3 99 576 578 
3 99 578 219 
3 100 220 578 
3 100 578 577 
3 100 577 314 
3 100 314 579 
3 100 579 581 
3 100 581 220 
3 101 569 221 
3 101 221 581 
3 101 581 580 
3 101 580 326 
3 101 326 567 
3 101 567 569 
3 102 223 582 
3 102 582 584 
3 102 584 264 
3 102 264 433 
3 102 433 432 
3 102 432 223 
3 103 222 418 
3 103 418 417 
3 103 417 287 
3 103 287 583 
3 103 583 582 
3 103 582 222 
3 104 265 584 
3 104 584 583 
3 104 583 286 
3 104 286 493 
3 104 493 492 
3 104 492 265 
3 105 339 508 
3 105 508 507 
3 105 507 355 
3 105 355 585 
3 105 585 587 
3 105 587 339 
3 106 226 586 
3 106 586 585 
3 106 585 354 
3 106 354 421 
3 106 421 420 
3 106 420 226 
3 107 225 445 
3 107 445 444 
3 107 444 340 
3 107 340 587 
3 107 587 586 
3 107 586 225 
3 108 229 588 
3 108 588 590 
3 108 590 318 
3 108 318 463 
3 108 463 462 
3 108 462 229 
3 109 228 448 
3 109 448 447 
3 109 447 305 
3 109 305 589 
3 109 589 588 
3 109 588 228 
3 110 304 478 
3 110 478 477 
3 110 477 319 
3 110 319 590 
3 110 590 589 
3 110 589 304 
3 111 232 591 
3 111 591 593 
3 111 593 378 
3 111 378 451 
3 111 451 450 
3 111 450 232 
3 112 231 475 
3 112 475 474 
3 112 474 394 
3 112 394 592 
3 112 592 591 
3 112 591 231 
3 113 379 593 
3 113 593 592 
3 113 592 393 
3 113 393 523 
3 113 523 522 
3 113 522 379 
3 114 238 594 
3 114 594 596 
3 114 596 324 
3 114 324 487 
3 114 487 486 
3 114 486 238 
3 115 237 499 
3 115 499 498 
3 115 498 280 
3 115 280 595 
3 115 595 594 
3 115 594 237 
3 116 279 568 
3 116 568 567 
3 116 567 325 
3 116 325 596 
3 116 596 595 
3 116 595 279 
3 117 235 597 
3 117 597 599 
3 117 599 270 
3 117 270 502 
3 117 502 501 
3 117 501 235 
3 118 234 484 
3 118 484 483 
3 118 483 298 
3 118 298 598 
3 118 598 597 
3 118 597 234 
3 119 271 599 
3 119 599 598 
3 119 598 297 
3 119 297 553 
3 119 553 552 
3 119 552 271 
3 120 241 600 
3 120 600 602 
3 120 602 261 
3 120 261 562 
3 120 562 561 
3 120 561 241 
3 121 240 538 
3 121 538 537 
3 121 537 343 
3 121 343 601 
3 121 601 600 
3 121 600 240 
3 122 262 602 
3 122 602 601 
3 122 601 342 
3 122 342 439 
3 122 439 438 
3 122 438 262 
3 123 244 603 
3 123 603 605 
3 123 605 375 
3 123 375 541 
3 123 541 540 
3 123 540 244 
3 124 243 559 
3 124 559 558 
3 124 558 307 
3 124 307 604 
3 124 604 603 
3 124 603 243 
3 125 306 457 
3 125 457 456 
3 125 456 376 
3 125 376 605 
3 125 605 604 
3 125 604 306 
3 126 247 606 
3 126 606 608 
3 126 608 366 
3 126 366 532 
3 126 532 531 
3 126 531 247 
3 127 246 514 
3 127 514 513 
3 127 513 334 
3 127 334 607 
3 127 607 606 
3 127 606 246 
3 128 333 547 
3 128 547 546 
3 128 546 367 
3 128 367 608 
3 128 608 607 
3 128 607 333 
3 129 250 609 
3 129 609 611 
3 129 611 364 
3 129 364 517 
3 129 517 516 
3 129 516 250 
3 130 249 529 
3 130 529 528 
3 130 528 385 
3 130 385 610 
3 130 610 609 
3 130 609 249 
3 131 402 365 
3 131 365 611 
3 131 611 610 
3 131 610 384 
3 131 384 403 
3 131 403 402 
3 132 256 612 
3 132 612 614 
3 132 614 348 
3 132 348 412 
3 132 412 411 
3 132 411 256 
3 133 255 574 
3 133 574 573 
3 133 573 289 
3 133 289 613 
3 133 613 612 
3 133 612 255 
3 134 288 427 
3 134 427 426 
3 134 426 349 
3 134 349 614 
3 134 614 613 
3 134 613 288 
3 135 253 615 
3 135 615 617 
3 135 617 315 
3 135 315 577 
3 135 577 576 
3 135 576 253 
3 136 252 409 
3 136 409 408 
3 136 408 400 
3 136 400 616 
3 136 616 615 
3 136 615 252 
3 137 316 617 
3 137 617 616 
3 137 616 399 
3 137 399 469 
3 137 469 468 
3 137 468 316 
3 138 258 436 
3 138 436 435 
3 138 435 268 
3 138 268 618 
3 138 618 620 
3 138 620 258 
3 139 267 505 
3 139 505 504 
3 139 504 274 
3 139 274 619 
3 139 619 618 
3 139 618 267 
3 140 259 620 
3 140 620 619 
3 140 619 273 
3 140 273 565 
3 140 565 564 
3 140 564 259 
3 141 276 496 
3 141 496 495 
3 141 495 284 
3 141 284 621 
3 141 621 623 
3 141 623 276 
3 142 283 430 
3 142 430 429 
3 142 429 292 
3 142 292 622 
3 142 622 621 
3 142 621 283 
3 143 277 623 
3 143 623 622 
3 143 622 291 
3 143 291 571 
3 143 571 570 
3 143 570 277 
3 144 294 481 
3 144 481 480 
3 144 480 302 
3 144 302 624 
3 144 624 626 
3 144 626 294 
3 145 301 460 
3 145 460 459 
3 145 459 310 
3 145 310 625 
3 145 625 624 
3 145 624 301 
3 146 295 626 
3 146 626 625 
3 146 625 309 
3 146 309 556 
3 146 556 555 
3 146 555 295 
3 147 312 466 
3 147 466 465 
3 147 465 322 
3 147 322 627 
3 147 627 629 
3 147 629 312 
3 148 321 490 
3 148 490 489 
3 148 489 328 
3 148 328 628 
3 148 628 627 
3 148 627 321 
3 149 313 629 
3 149 629 628 
3 149 628 327 
3 149 327 580 
3 149 580 579 
3 149 579 313 
3 150 330 511 
3 150 511 510 
3 150 510 337 
3 150 337 630 
3 150 630 632 
3 150 632 330 
3 151 336 442 
3 151 442 441 
3 151 441 346 
3 151 346 631 
3 151 631 630 
3 151 630 336 
3 152 331 632 
3 152 632 631 
3 152 631 345 
3 152 345 550 
3 152 550 549 
3 152 549 331 
3 153 351 424 
3 153 424 423 
3 153 423 358 
3 153 358 633 
3 153 633 635 
3 153 635 351 
3 154 357 520 
3 154 520 519 
3 154 519 362 
3 154 362 634 
3 154 634 633 
3 154 633 357 
3 155 352 635 
3 155 635 634 
3 155 634 361 
3 155 361 415 
3 155 415 414 
3 155 414 352 
3 156 369 544 
3 156 544 543 
3 156 543 373 
3 156 373 636 
3 156 636 638 
3 156 638 369 
3 157 372 454 
3 157 454 453 
3 157 453 382 
3 157 382 637 
3 157 637 636 
3 157 636 372 
3 158 370 638 
3 158 638 637 
3 158 637 381 
3 158 381 535 
3 158 535 534 
3 158 534 370 
3 159 387 526 
3 159 526 525 
3 159 525 391 
3 159 391 639 
3 159 639 641 
3 159 641 387 
3 160 390 472 
3 160 472 471 
3 160 471 397 
3 160 397 640 
3 160 640 639 
3 160 639 390 
3 161 388 641 
3 161 641 640 
3 161 640 396 
3 161 396 406 
3 161 406 405 
3 161 405 388 
3 166 404 162 
3 162 407 163 
3 163 410 164 
3 164 413 165 
3 165 416 166 
3 171 419 167 
3 167 422 168 
3 168 425 169 
3 169 428 170 
3 170 431 171 
3 176 434 172 
3 172 437 173 
3 173 440 174 
3 174 443 175 
3 175 446 176 
3 181 449 177 
3 177 452 178 
3 178 455 179 
3 179 458 180 
3 180 461 181 
3 186 464 182 
3 182 467 183 
3 183 470 184 
3 184 473 185 
3 185 476 186 
3 191 479 187 
3 187 482 188 
3 188 485 189 
3 189 488 190 
3 190 491 191 
3 196 494 192 
3 192 497 193 
3 193 500 194 
3 194 503 195 
3 195 506 196 
3 201 509 197 
3 197 512 198 
3 198 515 199 
3 199 518 200 
3 200 521 201 
3 206 524 202 
3 202 527 203 
3 203 530 204 
3 204 533 205 
3 205 536 206 
3 211 539 207 
3 207 542 208 
3 208 545 209 
3 209 548 210 
3 210 551 211 
3 216 554 212 
3 212 557 213 
3 213 560 214 
3 214 563 215 
3 215 566 216 
3 221 569 217 
3 217 572 218 
3 218 575 219 
3 219 578 220 
3 220 581 221 
3 227 418 222 
3 222 582 223 
3 223 432 224 
3 224 445 225 
3 225 586 226 
3 226 420 227 
3 233 448 228 
3 228 588 229 
3 229 462 230 
3 230 475 231 
3 231 591 232 
3 232 450 233 
3 239 484 234 
3 234 597 235 
3 235 501 236 
3 236 499 237 
3 237 594 238 
3 238 486 239 
3 245 538 240 
3 240 600 241 
3 241 561 242 
3 242 559 243 
3 243 603 244 
3 244 540 245 
3 251 514 246 
3 246 606 247 
3 247 531 248 
3 248 529 249 
3 249 609 250 
3 250 516 251 
3 257 409 252 
3 252 615 253 
3 253 576 254 
3 254 574 255 
3 255 612 256 
3 256 411 257 
3 263 436 258 
3 258 620 259 
3 259 564 260 
3 260 562 261 
3 261 602 262 
3 262 438 263 
3 269 433 264 
3 264 584 265 
3 265 492 266 
3 266 505 267 
3 267 618 268 
3 268 435 269 
3 275 502 270 
3 270 599 271 
3 271 552 272 
3 272 565 273 
3 273 619 274 
3 274 504 275 
3 281 496 276 
3 276 623 277 
3 277 570 278 
3 278 568 279 
3 279 595 280 
3 280 498 281 
3 287 417 282 
3 282 430 283 
3 283 621 284 
3 284 495 285 
3 285 493 286 
3 286 583 287 
3 293 427 288 
3 288 613 289 
3 289 573 290 
3 290 571 291 
3 291 622 292 
3 292 429 293 
3 299 481 294 
3 294 626 295 
3 295 555 296 
3 296 553 297 
3 297 598 298 
3 298 483 299 
3 305 447 300 
3 300 460 301 
3 301 624 302 
3 302 480 303 
3 303 478 304 
3 304 589 305 
3 311 457 306 
3 306 604 307 
3 307 558 308 
3 308 556 309 
3 309 625 310 
3 310 459 311 
3 317 466 312 
3 312 629 313 
3 313 579 314 
3 314 577 315 
3 315 617 316 
3 316 468 317 
3 323 463 318 
3 318 590 319 
3 319 477 320 
3 320 490 321 
3 321 627 322 
3 322 465 323 
3 329 487 324 
3 324 596 325 
3 325 567 326 
3 326 580 327 
3 327 628 328 
3 328 489 329 
3 335 511 330 
3 330 632 331 
3 331 549 332 
3 332 547 333 
3 333 607 334 
3 334 513 335 
3 341 442 336 
3 336 630 337 
3 337 510 338 
3 338 508 339 
3 339 587 340 
3 340 444 341 
3 347 439 342 
3 342 601 343 
3 343 537 344 
3 344 550 345 
3 345 631 346 
3 346 441 347 
3 353 412 348 
3 348 614 349 
3 349 426 350 
3 350 424 351 
3 351 635 352 
3 352 414 353 
3 359 421 354 
3 354 585 355 
3 355 507 356 
3 356 520 357 
3 357 633 358 
3 358 423 359 
3 365 402 360 
3 360 415 361 
3 361 634 362 
3 362 519 363 
3 363 517 364 
3 364 611 365 
3 371 532 366 
3 366 608 367 
3 367 546 368 
3 368 544 369 
3 369 638 370 
3 370 534 371 
3 377 454 372 
3 372 636 373 
3 373 543 374 
3 374 541 375 
3 375 605 376 
3 376 456 377 
3 383 451 378 
3 378 593 379 
3 379 522 380 
3 380 535 381 
3 381 637 382 
3 382 453 383 
3 389 403 384 
3 384 610 385 
3 385 528 386 
3 386 526 387 
3 387 641 388 
3 388 405 389 
3 395 472 390 
3 390 639 391 
3 391 525 392 
3 392 523 393 
3 393 592 394 
3 394 474 395 
3 401 406 396 
3 396 640 397 
3 397 471 398 
3 398 469 399 
3 399 616 400 
3 400 408 401 
3 402 403 404 
3 405 406 407 
3 408 409 410 
3 411 412 413 
3 414 415 416 
3 417 418 419 
3 420 421 422 
3 423 424 425 
3 426 427 428 
3 429 430 431 
3 432 433 434 
3 435 436 437 
3 438 439 440 
3 441 442 443 
3 444 445 446 
3 447 448 449 
3 450 451 452 
3 453 454 455 
3 456 457 458 
3 459 460 461 
3 462 463 464 
3 465 466 467 
3 468 469 470 
3 471 472 473 
3 474 475 476 
3 477 478 479 
3 480 481 482 
3 483 484 485 
3 486 487 488 
3 489 490 491 
3 492 493 494 
3 495 496 497 
3 498 499 500 
3 501 502 503 
3 504 505 506 
3 507 508 509 
3 510 511 512 
3 513 514 515 
3 516 517 518 
3 519 520 521 
3 522 523 524 
3 525 526 527 
3 528 529 530 
3 531 532 533 
3 534 535 536 
3 537 538 539 
3 540 541 542 
3 543 544 545 
3 546 547 548 
3 549 550 551 
3 552 553 554 
3 555 556 557 
3 558 559 560 
3 561 562 563 
3 564 565 566 
3 567 568 569 
3 570 571 572 
3 573 574 575 
3 576 577 578 
3 579 580 581 
3 582 583 584 
3 585 586 587 
3 588 589 590 
3 591 592 593 
3 594 595 596 
3 597 598 599 
3 600 601 602 
3 603 604 605 
3 606 607 608 
3 609 610 611 
3 612 613 614 
3 615 616 617 
3 618 619 620 
3 621 622 623 
3 624 625 626 
3 627 628 629 
3 630 631 632 
3 633 634 635 
3 636 637 638 
3 639 640 641 
